<?xml version="1.0" encoding="utf-8"?>
<!-- Svg Vector Icons : http://www.onlinewebfonts.com/icon -->
<!DOCTYPE svg PUBLIC "-//W3C//DTD SVG 1.1//EN" "http://www.w3.org/Graphics/SVG/1.1/DTD/svg11.dtd">
<svg version="1.1" xmlns="http://www.w3.org/2000/svg" xmlns:xlink="http://www.w3.org/1999/xlink" x="0px" y="0px" viewBox="0 0 1000 1000" enable-background="new 0 0 1000 1000" xml:space="preserve">
<metadata> Svg Vector Icons : http://www.onlinewebfonts.com/icon </metadata>
<g><path d="M776,968.1c-10.5,0-21.3-3.1-32.2-9.2l-244-128.3L255.6,959c-11.2,6.1-21.9,9.2-32,9.2c-14.2,0-26.3-5.8-34-16.4c-6.5-8.9-9.7-19.6-9.7-31.7c0-3.3,0.4-7.8,1.4-14.2c0-0.2,0-0.3,0.1-0.5l46.8-272L30.1,440.6c-0.3-0.2-0.5-0.5-0.7-0.8C16.3,425.7,10,412.4,10,399.2c0-13,5.3-24.2,15.2-32.4c8.1-6.7,19-11,33.3-13.3c0.1,0,0.2,0,0.3,0L332,313.8L454.3,66.3c13.3-28.5,32.2-34.5,45.7-34.5c13.5,0,32.4,6,45.7,34.5L668,313.8l273.2,39.7c0.1,0,0.2,0,0.3,0c14.2,2.3,25.1,6.6,33.3,13.3c10,8.2,15.2,19.4,15.2,32.4c0,1.6-0.2,3.2-0.6,4.7c-1.4,12.2-8.2,24.4-20.3,36.5c-0.1,0.1-0.1,0.1-0.2,0.2L771.5,633.2l46.8,272.1c0,0.2,0.1,0.3,0.1,0.5c0.5,3.6,0.8,8.3,0.8,14.2c0,12.2-3.3,22.9-9.7,31.8C801.7,962.3,789.9,968.1,776,968.1z M499.9,788.1c3.2,0,6.4,0.8,9.3,2.3l253.6,133.3c0.2,0.1,0.4,0.2,0.6,0.3c4.8,2.8,9.1,4.2,12.6,4.2c0.5,0,0.9,0,1.2-0.1c0.6-0.8,2-3.1,2-8.2c0-4.9-0.2-7.3-0.3-8.2l-48.5-282.1c-1.1-6.5,1-13.1,5.7-17.7l205-199.9c6.9-6.9,8.8-11.5,8.8-12.9c0-0.4,0-0.8,0-1.2c-0.7-0.7-4-3.3-14.5-5l-283.4-41.2c-6.5-0.9-12.1-5-15-10.9l-127.1-257c-0.1-0.2-0.2-0.3-0.2-0.5c-2.6-5.6-6.5-11.5-9.6-11.5s-7,6-9.6,11.6c-0.1,0.2-0.1,0.3-0.2,0.5l-127.1,257c-2.9,5.9-8.5,10-15,10.9L64.7,393c-12,1.9-14.6,5.2-14.6,5.2c0,0-0.1,0.3-0.1,1c0,0,0.2,4.2,8.5,13.2L263.6,612c4.7,4.6,6.9,11.2,5.8,17.7l-48.5,282.2c-0.9,6.1-0.9,7.9-0.9,8.1c0,4.9,1.3,7.2,2,8.1c0.3,0.1,0.9,0.2,1.8,0.2c3.2,0,7.8-1.5,13-4.4c0.1-0.1,0.2-0.1,0.3-0.1l253.6-133.3C493.5,788.8,496.7,788.1,499.9,788.1z"/></g>
</svg>